<?xml version="1.0" encoding="utf-8"?>
<!-- Generator: Adobe Illustrator 19.2.1, SVG Export Plug-In . SVG Version: 6.00 Build 0)  -->
<svg version="1.1" id="Layer_1" xmlns="http://www.w3.org/2000/svg" xmlns:xlink="http://www.w3.org/1999/xlink" x="0px" y="0px"
	 viewBox="0 0 226.3 90.3" style="enable-background:new 0 0 226.3 90.3;" xml:space="preserve">
<style type="text/css">
	.st0{fill:#FFFFFF;}
</style>
<path class="st0" d="M63.4,90.3h9.9L41.4,0h-9.6L0,90.3h9.9l5.9-17.6l41.7,0.1L63.4,90.3z M36.6,12.6l9.1,25H27.6L36.6,12.6z
	 M24.7,46.3l24,0l3.6,10.6l2.4,7.1H18.7l2.4-7.1L24.7,46.3z"/>
<g>
	<path class="st0" d="M103.1,63.4l-6-16.5h-2.6L88,63.4h1.9l2.4-6.2h6.5l2.2,6.2H103.1z M92.9,55.7l2.8-7.5l2.6,7.5H92.9z"/>
	<path class="st0" d="M108,52.4v-1.7h-1.8v12.8h1.8V54c0.6-0.9,1.8-2,3.3-2c0.7,0,1.1,0.1,1.5,0.2l0.3-1.6c-0.2-0.1-0.7-0.2-1.5-0.2
		C109.8,50.4,108.5,51.4,108,52.4z"/>
	<path class="st0" d="M133.9,63.4v-8.2c0-2.2-0.2-4.8-4-4.8c-2,0-3.6,1.1-4.6,1.9c-0.5-1.1-1.5-1.9-3.5-1.9c-1.6,0-3.1,1-4.1,1.8
		v-1.5h-1.8v12.8h1.8v-9.8c1-0.7,2.5-1.7,3.7-1.7c2.3,0,2.6,1.6,2.6,3.6v7.9h1.8v-8.2c0-0.5-0.1-1.1-0.1-1.7
		c1.1-0.8,2.4-1.5,3.8-1.5c2.3,0,2.6,1.6,2.6,3.6v7.9H133.9z"/>
	<path class="st0" d="M143.4,50.3c-3.2,0-5.7,1.8-5.7,6.9c0,4.9,2.3,6.4,6,6.4c2.1,0,3.6-0.4,4-0.6l-0.3-1.5
		c-0.6,0.2-2.2,0.5-3.2,0.5c-2.6,0-4.7-0.7-4.7-4.7h8.4v-0.7C148,52.5,146.6,50.3,143.4,50.3z M139.6,56c0.2-2.9,1.6-4.3,3.5-4.3
		c2,0,2.9,1.7,2.9,4.3H139.6z"/>
	<path class="st0" d="M158.2,50.3c-1.9,0-3.3,1-4.4,1.8v-1.4h-1.8v12.8h1.8v-9.9c1-0.6,2.5-1.6,4-1.6c2.3,0,2.6,1.4,2.6,3.6v7.9h1.8
		v-8.2C162.2,53,162,50.3,158.2,50.3z"/>
	<polygon class="st0" points="169.4,46.7 167.9,45.1 166.4,46.7 167.9,48.2 	"/>
	<rect x="167" y="50.6" class="st0" width="1.9" height="12.8"/>
	<path class="st0" d="M183.1,63.6h0.3l0.1-1.4c-0.6-0.1-1.2-0.3-1.2-1.2v-7.1c0-2.5-1.7-3.4-4.5-3.4c-1.9,0-3.5,0.5-4.1,0.7l0.4,1.4
		c0.5-0.2,2-0.6,3.2-0.6c2.3,0,3.3,0.4,3.3,2.4v1.7l-3,0c-2.1,0-4.9,0.7-4.9,3.8c0,2.4,1.3,3.6,3.6,3.6c2.5,0,3.8-1.3,4.4-1.7
		C180.8,63.1,182,63.6,183.1,63.6z M180.5,60.7c-0.3,0.2-2.2,1.4-3.8,1.4c-1.4,0-2.3-0.6-2.3-2.3c0-1.3,1.1-2.2,3.1-2.3l3.1-0.1
		V60.7z"/>
	<path class="st0" d="M203.5,63.4h2.1l-6-16.5H197l-6.6,16.5h1.9l2.4-6.2h6.5L203.5,63.4z M195.4,55.7l2.8-7.5l2.6,7.5H195.4z"/>
	<path class="st0" d="M210.4,52.4v-1.7h-1.8v12.8h1.8V54c0.6-0.9,1.8-2,3.3-2c0.7,0,1.1,0.1,1.5,0.2l0.3-1.6
		c-0.2-0.1-0.7-0.2-1.5-0.2C212.3,50.4,211,51.4,210.4,52.4z"/>
	<path class="st0" d="M219.7,59.9c0,3.7,1.9,3.8,4.3,3.8c0.8,0,1.8-0.3,2.3-0.4l-0.3-1.5c-0.3,0.1-1.3,0.4-2,0.4
		c-1.9,0-2.4-0.4-2.4-2.2v-7.6h4v-1.6h-4V48h-1.8v2.6h-1.9v1.6h1.9V59.9z"/>
	<polygon class="st0" points="88,82.8 89.2,82.8 89.2,78.1 94.2,78.1 94.2,77 89.2,77 89.2,72.8 94.5,72.8 94.5,71.7 88,71.7 	"/>
	<path class="st0" d="M105.6,71.6c-3.4,0-5.7,2.2-5.7,5.7c0,3.4,2,5.8,5.4,5.8c3.6,0,5.7-2.3,5.7-5.7C111,74,109.2,71.6,105.6,71.6z
		 M105.4,81.9c-2.8,0-4.2-2.2-4.2-4.7c0-2.6,1.4-4.6,4.3-4.6c2.7,0,4.2,2,4.2,4.6C109.7,79.9,108.3,81.9,105.4,81.9z"/>
	<path class="st0" d="M125.2,78.5c0,2.6-1.4,3.4-3.2,3.4c-1.6,0-3.1-0.6-3.1-3v-7.1h-1.3V79c0,3.2,2.3,4.1,4.5,4.1
		c2,0,4.4-0.9,4.4-4.5v-6.8h-1.3V78.5z"/>
	<polygon class="st0" points="141.3,80.3 141.3,81.7 135.6,71.7 133.8,71.7 133.8,82.8 135.1,82.8 135.1,74.1 135,73 140.5,82.8 
		142.6,82.8 142.6,71.7 141.3,71.7 	"/>
	<path class="st0" d="M153.1,71.7h-3v11.1h3.1c3.7,0,6.1-1.7,6.1-5.6C159.2,73.6,156.6,71.7,153.1,71.7z M153.3,81.7h-2v-9h1.7
		c3,0,4.9,1.5,4.9,4.6C157.9,80.3,156.2,81.7,153.3,81.7z"/>
	<path class="st0" d="M168.1,71.7l-4.4,11.1h1.3l1.6-4.1h4.4l1.5,4.1h1.4l-4-11.1H168.1z M167.1,77.6l1.9-5l1.7,5H167.1z"/>
	<polygon class="st0" points="177.1,72.8 180.9,72.8 180.9,82.8 182.2,82.8 182.2,72.8 186,72.8 186,71.7 177.1,71.7 	"/>
	<rect x="191.7" y="71.7" class="st0" width="1.3" height="11.1"/>
	<path class="st0" d="M205.4,71.6c-3.4,0-5.7,2.2-5.7,5.7c0,3.4,2,5.8,5.4,5.8c3.6,0,5.7-2.3,5.7-5.7C210.8,74,209,71.6,205.4,71.6z
		 M205.2,81.9c-2.8,0-4.2-2.2-4.2-4.7c0-2.6,1.4-4.6,4.3-4.6c2.7,0,4.2,2,4.2,4.6C209.5,79.9,208.1,81.9,205.2,81.9z"/>
	<polygon class="st0" points="224.9,80.3 225,81.7 219.3,71.7 217.5,71.7 217.5,82.8 218.7,82.8 218.7,74.1 218.7,73 224.2,82.8 
		226.3,82.8 226.3,71.7 224.9,71.7 	"/>
</g>
</svg>
