<?xml version="1.0" encoding="utf-8"?>
<!-- Generator: Adobe Illustrator 19.2.1, SVG Export Plug-In . SVG Version: 6.00 Build 0)  -->
<svg version="1.1" id="Layer_1" xmlns="http://www.w3.org/2000/svg" xmlns:xlink="http://www.w3.org/1999/xlink" x="0px" y="0px"
	 viewBox="0 0 138.3 39.3" style="enable-background:new 0 0 138.3 39.3;" xml:space="preserve">
<g>
	<path d="M15.1,19.5L9.2,3H6.6L0,19.5h1.9l2.4-6.2h6.5l2.2,6.2H15.1z M5,11.8l2.8-7.5l2.6,7.5H5z"/>
	<path d="M20,8.5V6.8h-1.8v12.8H20v-9.4c0.6-0.9,1.8-2,3.3-2c0.7,0,1.1,0.1,1.5,0.2l0.3-1.6c-0.2-0.1-0.7-0.2-1.5-0.2
		C21.8,6.5,20.6,7.5,20,8.5z"/>
	<path d="M45.9,19.5v-8.2c0-2.2-0.2-4.8-4-4.8c-2,0-3.6,1.1-4.6,1.9c-0.5-1.1-1.5-1.9-3.5-1.9c-1.6,0-3.1,1-4.1,1.8V6.8h-1.8v12.8
		h1.8V9.7c1-0.7,2.5-1.7,3.7-1.7c2.3,0,2.6,1.6,2.6,3.6v7.9h1.8v-8.2c0-0.5-0.1-1.1-0.1-1.7c1.1-0.8,2.4-1.5,3.8-1.5
		c2.3,0,2.6,1.6,2.6,3.6v7.9H45.9z"/>
	<path d="M55.5,6.4c-3.2,0-5.7,1.8-5.7,6.9c0,4.9,2.3,6.4,6,6.4c2.1,0,3.6-0.4,4-0.6l-0.3-1.5c-0.6,0.2-2.2,0.5-3.2,0.5
		c-2.6,0-4.7-0.7-4.7-4.7h8.4v-0.7C60.1,8.6,58.6,6.4,55.5,6.4z M51.7,12.1c0.2-2.9,1.6-4.3,3.5-4.3c2,0,2.9,1.7,2.9,4.3H51.7z"/>
	<path d="M70.2,6.4c-1.9,0-3.3,1-4.4,1.8V6.8h-1.8v12.8h1.8V9.6c1-0.6,2.5-1.6,4-1.6c2.3,0,2.6,1.4,2.6,3.6v7.9h1.8v-8.2
		C74.2,9.1,74,6.4,70.2,6.4z"/>
	<polygon points="81.5,2.8 79.9,1.2 78.4,2.8 79.9,4.4 	"/>
	<rect x="79" y="6.8" width="1.9" height="12.8"/>
	<path d="M95.1,19.7h0.3l0.1-1.4c-0.6-0.1-1.2-0.3-1.2-1.2V9.9c0-2.5-1.7-3.4-4.5-3.4c-1.9,0-3.5,0.5-4.1,0.7l0.4,1.4
		c0.5-0.2,2-0.6,3.2-0.6c2.3,0,3.3,0.4,3.3,2.4v1.7l-3,0c-2.1,0-4.9,0.7-4.9,3.8c0,2.4,1.3,3.6,3.6,3.6c2.5,0,3.8-1.3,4.4-1.7
		C92.9,19.2,94.1,19.7,95.1,19.7z M92.6,16.8c-0.3,0.2-2.2,1.4-3.8,1.4c-1.4,0-2.3-0.6-2.3-2.3c0-1.3,1.1-2.2,3.1-2.3l3.1-0.1V16.8z
		"/>
	<path d="M115.5,19.5h2.1l-6-16.5H109l-6.6,16.5h1.9l2.4-6.2h6.5L115.5,19.5z M107.4,11.8l2.8-7.5l2.6,7.5H107.4z"/>
	<path d="M122.4,8.5V6.8h-1.8v12.8h1.8v-9.4c0.6-0.9,1.8-2,3.3-2c0.7,0,1.1,0.1,1.5,0.2l0.3-1.6c-0.2-0.1-0.7-0.2-1.5-0.2
		C124.3,6.5,123,7.5,122.4,8.5z"/>
	<path d="M131.7,16c0,3.7,1.9,3.8,4.3,3.8c0.8,0,1.8-0.3,2.3-0.4l-0.3-1.5c-0.3,0.1-1.3,0.4-2,0.4c-1.9,0-2.4-0.4-2.4-2.2V8.3h4V6.8
		h-4V4.1h-1.8v2.6h-1.9v1.6h1.9V16z"/>
	<polygon points="0,38.9 1.3,38.9 1.3,34.2 6.2,34.2 6.2,33.1 1.3,33.1 1.3,28.9 6.5,28.9 6.5,27.8 0,27.8 	"/>
	<path d="M17.7,27.7c-3.4,0-5.7,2.2-5.7,5.7c0,3.4,2,5.8,5.4,5.8c3.6,0,5.7-2.3,5.7-5.7C23.1,30.2,21.2,27.7,17.7,27.7z M17.4,38.1
		c-2.8,0-4.2-2.2-4.2-4.7c0-2.6,1.4-4.6,4.3-4.6c2.7,0,4.2,2,4.2,4.6C21.8,36,20.4,38.1,17.4,38.1z"/>
	<path d="M37.2,34.6c0,2.6-1.4,3.4-3.2,3.4c-1.6,0-3.1-0.6-3.1-3v-7.1h-1.3v7.2c0,3.2,2.3,4.1,4.5,4.1c2,0,4.4-0.9,4.4-4.5v-6.8
		h-1.3V34.6z"/>
	<polygon points="53.3,36.5 53.3,37.8 47.7,27.8 45.8,27.8 45.8,38.9 47.1,38.9 47.1,30.2 47,29.1 52.6,38.9 54.6,38.9 54.6,27.8 
		53.3,27.8 	"/>
	<path d="M65.1,27.8h-3v11.1h3.1c3.7,0,6.1-1.7,6.1-5.6C71.3,29.7,68.7,27.8,65.1,27.8z M65.4,37.9h-2v-9h1.7c3,0,4.9,1.5,4.9,4.6
		C70,36.4,68.3,37.9,65.4,37.9z"/>
	<path d="M80.2,27.8l-4.4,11.1H77l1.6-4.1h4.4l1.5,4.1h1.4l-4-11.1H80.2z M79.1,33.8l1.9-5l1.7,5H79.1z"/>
	<polygon points="89.1,28.9 92.9,28.9 92.9,38.9 94.2,38.9 94.2,28.9 98,28.9 98,27.8 89.1,27.8 	"/>
	<rect x="103.8" y="27.8" width="1.3" height="11.1"/>
	<path d="M117.5,27.7c-3.4,0-5.7,2.2-5.7,5.7c0,3.4,2,5.8,5.4,5.8c3.6,0,5.7-2.3,5.7-5.7C122.8,30.2,121,27.7,117.5,27.7z
		 M117.2,38.1c-2.8,0-4.2-2.2-4.2-4.7c0-2.6,1.4-4.6,4.3-4.6c2.7,0,4.2,2,4.2,4.6C121.6,36,120.2,38.1,117.2,38.1z"/>
	<polygon points="137,36.5 137,37.8 131.4,27.8 129.5,27.8 129.5,38.9 130.8,38.9 130.8,30.2 130.7,29.1 136.3,38.9 138.3,38.9 
		138.3,27.8 137,27.8 	"/>
</g>
</svg>
